<?xml version="1.0" encoding="utf-8"?>
<!-- Generator: Adobe Illustrator 24.0.0, SVG Export Plug-In . SVG Version: 6.00 Build 0)  -->
<svg version="1.1" id="Layer_1" xmlns="http://www.w3.org/2000/svg" xmlns:xlink="http://www.w3.org/1999/xlink" x="0px" y="0px"
	 viewBox="0 0 366.7 104.2" style="enable-background:new 0 0 366.7 104.2;" xml:space="preserve">
<style type="text/css">
	.st0{fill:#FFFFFF;}
</style>
<g id="APSIDE">
</g>
<g id="ellipse">
	<g>
		<g id="Ellipse">
			<path class="st0" d="M301.3,38.8"/>
		</g>
		<path class="st0" d="M117.7,84.8c-4.3,0.7-8.7,1.4-14.1,1.8c0-1.7,0-41.3,0-44.4c3.2-0.8,11-1.9,14.1-2.1
			C117.7,42,117.7,83.2,117.7,84.8z"/>
		<g>
			<path class="st0" d="M315.5,29.6V15.9h-48.7c2.1,1.2,3.9,2.5,5.7,4.1c3,2.6,5.5,5.8,7.5,9.6H315.5"/>
			<path class="st0" d="M317.7,88.1V74.5h-38c-1.9,3.5-4.3,6.5-7.1,9.1h-0.1c-1.8,1.7-3.9,3.2-6.2,4.5H317.7"/>
			<path class="st0" d="M51.4,88.1c0.2-0.4,12.9-18.8,12.9-18.8h18.1v-11H71.9l10.5-15.4v15.4v11c0,0,0,17.5,0,18.8
				c4.6,0,10.3-0.4,15.3-0.8c0-1.3,0-71.4,0-71.4H82.5h-0.1c0,0-47.5,69-48,69.7C37.8,87,51.4,88.1,51.4,88.1"/>
			<path class="st0" d="M149.6,22.4c-0.7-0.6-1.3-1.1-2.1-1.6c-5.4-3.8-13.2-5.7-23.3-5.7c-2.9,0-6.1,0.1-9.9,0.4
				c-3.7,0.3-7.2,0.8-10.6,1.5v13.6c10.1-1.2,16.4-1.5,18.2-1.5c1-0.1,2.1-0.1,3.2-0.1c2.3,0,4.3,0.1,6.1,0.5
				c1.9,0.2,3.4,0.8,4.7,1.6c1.3,0.8,2.3,1.9,2.9,3.2c0.7,1.3,1.1,2.9,1.1,4.9c0,4.2-1.4,7-4,8.6c-2.7,1.5-6.7,2.3-12,2.3l-20.2-0.8
				v13.5l20.2,1.2c10.2,0,18-2,23.5-5.8c2.1-1.5,3.8-3.3,5.1-5.5c-1.7-1.8-3.2-3.9-4.3-6.3h-0.1C146.7,43.5,146,40,146,36
				s0.7-7.7,2.2-10.9l0,0C148.6,24.1,149,23.3,149.6,22.4"/>
			<path class="st0" d="M204.4,33.2c6.6-1.7,11.7-2.9,15.3-3.5V15.9h-15.3V33.2"/>
			<path class="st0" d="M219.7,33.5c-5.4,0.9-10.5,2-15.3,3.5v51.1h15.3V33.5"/>
			<path class="st0" d="M150.5,36c0,3.3,0.6,6.1,1.7,8.4s2.6,4.3,4.3,6c1.8,1.6,3.8,2.9,6,4c2.3,1.1,4.5,2,6.7,2.9
				c5.1,1.8,8.7,3.5,10.8,5c2.1,1.6,3.1,3.6,3.1,5.9c0,1.2-0.1,2.2-0.5,3c-0.3,1-0.9,1.7-1.7,2.4c-0.9,0.6-2,1.2-3.4,1.6
				c-1.4,0.3-3.2,0.5-5.4,0.5c-4.3,0-7.9-0.4-10.9-1.4c-3-0.9-5.5-2-7.5-3.2l-4.3,13c0.9,0.5,2,1.1,3.3,1.7c1.4,0.7,3,1.3,4.9,1.8
				c1.8,0.6,3.9,1,6.4,1.4c2.4,0.4,5.1,0.6,8.1,0.6c9,0,15.7-1.8,20.2-5.6c4.4-3.7,6.6-8.9,6.6-15.6c0-3.6-0.4-6.5-1.2-8.9
				c-0.9-2.5-2.2-4.6-3.9-6.4c-1.8-1.8-3.9-3.4-6.6-4.7c-2.6-1.4-5.6-2.7-9.2-4.1c-1.6-0.7-3.2-1.3-4.6-1.9
				c-1.5-0.5-2.7-1.2-3.7-1.9c-1.1-0.8-2-1.5-2.6-2.5c-0.6-0.9-0.9-2-0.9-3.3c0-2.2,0.8-3.9,2.4-5c1.6-1,4.3-1.6,8-1.6
				c3.2,0,6,0.4,8.3,1.2c2.4,0.8,4.5,1.7,6.4,2.8l4.4-12.9c-2.2-1.2-4.9-2.3-8.3-3.4c-3.3-1-7.2-1.5-11.8-1.5
				c-3.9,0-7.4,0.5-10.4,1.5c-3.1,1-5.7,2.4-7.9,4.3c-2.1,1.9-3.9,4.2-5,6.9C151.1,29.6,150.5,32.6,150.5,36"/>
			<g>
				<path class="st0" d="M226.3,15.9v14c5.2-0.6,10.4-0.9,15.6-0.9c7.6,0,13.2,2,16.8,5.8c3.5,3.9,5.3,9.6,5.3,17.2
					c0,7.2-1.9,12.8-5.5,16.9c-3.8,4.2-9.5,6.2-17.1,6.2c-4.5,0-9.5-0.3-15.1-1v14.1c1.5,0.2,3.1,0.4,4.7,0.5
					c3.6,0.2,6.9,0.3,9.6,0.3c6,0,11.5-0.7,16.3-2.2c4.9-1.6,9-3.9,12.3-6.9c3.3-3.1,6-6.9,7.8-11.5c1.9-4.7,2.8-10.2,2.8-16.4
					c0-6.6-0.9-12.1-2.8-16.8c-1.8-4.6-4.5-8.5-7.8-11.5c-3.4-3-7.5-5.2-12.2-6.5c-4.8-1.4-10.1-2.1-15.9-2.1c-2.8,0-6,0.1-9.9,0.4
					C229.6,15.6,227.9,15.7,226.3,15.9"/>
				<path class="st0" d="M312.1,43.8h-27.8c0.3,2.5,0.5,5.3,0.5,8.2c0,1.7-0.1,3.4-0.3,5.1h27.6L312.1,43.8"/>
			</g>
		</g>
	</g>
	<path class="st0" d="M1.9,88.9C1,90,0.5,91.1,0.2,92.1c-1.1,4,2.7,7.1,11.3,9.2c25.6,6.2,71.5,2.7,139.9-11
		c-0.8-0.3-3.6-1.7-5.8-2.8c-0.5-0.3-0.4-1-0.2-1.7l0.1-0.3C95.6,95,56.6,96.2,33.9,92.8C14.7,90,15.6,82.7,36.7,71.2
		c2.1-1.2,3.1-1.8,6-3.1c0.3-0.3,2.7-3.7,2.8-3.9c-7.7,3.2-15.7,6.4-21.7,9.5C12.4,79.6,5,84.7,1.9,88.9"/>
	<path class="st0" d="M365.2,6.2c-0.7-0.7-1.8-1.4-3.1-2c-5-2.4-14.1-3.8-27.3-4.1c-18.6-0.5-41.5,2.6-68.9,7l0,0
		c23.3-3,42-4.1,56.2-3.4c24.4,1.2,29,7.2,13.7,18c-13.3,9.2-25.7,14-35.6,17.9c-0.1,0-0.3,0.1-0.5,0.2h15.1c0.8,0,1.5,0.3,2.1,0.9
		c0.6,0.5,0.9,1.2,0.9,2.1v0.7c20.8-8.2,32.9-16.3,42.4-24.3C366.6,13.7,368.3,9.4,365.2,6.2"/>
	<path class="st0" d="M336.9,12.1c0.2,7.9-17.5,19.5-36.4,27.4c9.9-3.9,22.4-8.8,35.8-18c15.4-10.9,10.8-16.9-13.8-18.1
		c-14.3-0.7-33.1,0.4-56.6,3.4c14.1-1.4,28.7-2,43.8-1.7C327.2,5.5,336.3,7.4,336.9,12.1"/>
</g>
<g id="slogan">
</g>
</svg>
