<?xml version="1.0" encoding="utf-8"?>
<!-- Generator: Adobe Illustrator 22.0.1, SVG Export Plug-In . SVG Version: 6.00 Build 0)  -->
<svg version="1.1" xmlns="http://www.w3.org/2000/svg" xmlns:xlink="http://www.w3.org/1999/xlink" x="0px" y="0px"
	 viewBox="0 0 841.9 595.3" style="enable-background:new 0 0 841.9 595.3;" xml:space="preserve">
<style type="text/css">
	.st0{fill:#0C1936;}
</style>
<g id="APSIDE">
</g>
<g id="ellipse">
	<g>
		<g id="Ellipse">
			<path class="st0" d="M490.7,265.5"/>
		</g>
		<path class="st0" d="M307.1,311.5c-4.3,0.7-8.7,1.4-14.1,1.8c0-1.7,0-41.3,0-44.4c3.2-0.8,11-1.9,14.1-2.1
			C307.1,268.7,307.1,309.9,307.1,311.5z"/>
		<g>
			<path class="st0" d="M504.9,256.3v-13.7h-48.7c2.1,1.2,3.9,2.5,5.7,4.1c3,2.6,5.5,5.8,7.5,9.6H504.9"/>
			<path class="st0" d="M507.1,314.8v-13.6h-38c-1.9,3.5-4.3,6.5-7.1,9.1h-0.1c-1.8,1.7-3.9,3.2-6.2,4.5H507.1"/>
			<path class="st0" d="M240.8,314.8c0.2-0.4,12.9-18.8,12.9-18.8h18.1v-11h-10.5l10.5-15.4V285v11c0,0,0,17.5,0,18.8
				c4.6,0,10.3-0.4,15.3-0.8c0-1.3,0-71.4,0-71.4h-15.2h-0.1c0,0-47.5,69-48,69.7C227.2,313.7,240.8,314.8,240.8,314.8"/>
			<path class="st0" d="M339,249.1c-0.7-0.6-1.3-1.1-2.1-1.6c-5.4-3.8-13.2-5.7-23.3-5.7c-2.9,0-6.1,0.1-9.9,0.4
				c-3.7,0.3-7.2,0.8-10.6,1.5v13.6c10.1-1.2,16.4-1.5,18.2-1.5c1-0.1,2.1-0.1,3.2-0.1c2.3,0,4.3,0.1,6.1,0.5
				c1.9,0.2,3.4,0.8,4.7,1.6c1.3,0.8,2.3,1.9,2.9,3.2c0.7,1.3,1.1,2.9,1.1,4.9c0,4.2-1.4,7-4,8.6c-2.7,1.5-6.7,2.3-12,2.3l-20.2-0.8
				v13.5l20.2,1.2c10.2,0,18-2,23.5-5.8c2.1-1.5,3.8-3.3,5.1-5.5c-1.7-1.8-3.2-3.9-4.3-6.3h-0.1c-1.4-2.9-2.1-6.4-2.1-10.4
				s0.7-7.7,2.2-10.9l0,0C338,250.8,338.4,250,339,249.1"/>
			<path class="st0" d="M393.8,259.9c6.6-1.7,11.7-2.9,15.3-3.5v-13.8h-15.3V259.9"/>
			<path class="st0" d="M409.1,260.2c-5.4,0.9-10.5,2-15.3,3.5v51.1h15.3V260.2"/>
			<path class="st0" d="M339.9,262.7c0,3.3,0.6,6.1,1.7,8.4c1.1,2.3,2.6,4.3,4.3,6c1.8,1.6,3.8,2.9,6,4c2.3,1.1,4.5,2,6.7,2.9
				c5.1,1.8,8.7,3.5,10.8,5c2.1,1.6,3.1,3.6,3.1,5.9c0,1.2-0.1,2.2-0.5,3c-0.3,1-0.9,1.7-1.7,2.4c-0.9,0.6-2,1.2-3.4,1.6
				c-1.4,0.3-3.2,0.5-5.4,0.5c-4.3,0-7.9-0.4-10.9-1.4c-3-0.9-5.5-2-7.5-3.2l-4.3,13c0.9,0.5,2,1.1,3.3,1.7c1.4,0.7,3,1.3,4.9,1.8
				c1.8,0.6,3.9,1,6.4,1.4c2.4,0.4,5.1,0.6,8.1,0.6c9,0,15.7-1.8,20.2-5.6c4.4-3.7,6.6-8.9,6.6-15.6c0-3.6-0.4-6.5-1.2-8.9
				c-0.9-2.5-2.2-4.6-3.9-6.4c-1.8-1.8-3.9-3.4-6.6-4.7c-2.6-1.4-5.6-2.7-9.2-4.1c-1.6-0.7-3.2-1.3-4.6-1.9
				c-1.5-0.5-2.7-1.2-3.7-1.9c-1.1-0.8-2-1.5-2.6-2.5c-0.6-0.9-0.9-2-0.9-3.3c0-2.2,0.8-3.9,2.4-5c1.6-1,4.3-1.6,8-1.6
				c3.2,0,6,0.4,8.3,1.2c2.4,0.8,4.5,1.7,6.4,2.8l4.4-12.9c-2.2-1.2-4.9-2.3-8.3-3.4c-3.3-1-7.2-1.5-11.8-1.5
				c-3.9,0-7.4,0.5-10.4,1.5c-3.1,1-5.7,2.4-7.9,4.3c-2.1,1.9-3.9,4.2-5,6.9C340.5,256.3,339.9,259.3,339.9,262.7"/>
			<g>
				<path class="st0" d="M415.7,242.6v14c5.2-0.6,10.4-0.9,15.6-0.9c7.6,0,13.2,2,16.8,5.8c3.5,3.9,5.3,9.6,5.3,17.2
					c0,7.2-1.9,12.8-5.5,16.9c-3.8,4.2-9.5,6.2-17.1,6.2c-4.5,0-9.5-0.3-15.1-1v14.1c1.5,0.2,3.1,0.4,4.7,0.5
					c3.6,0.2,6.9,0.3,9.6,0.3c6,0,11.5-0.7,16.3-2.2c4.9-1.6,9-3.9,12.3-6.9c3.3-3.1,6-6.9,7.8-11.5c1.9-4.7,2.8-10.2,2.8-16.4
					c0-6.6-0.9-12.1-2.8-16.8c-1.8-4.6-4.5-8.5-7.8-11.5c-3.4-3-7.5-5.2-12.2-6.5c-4.8-1.4-10.1-2.1-15.9-2.1c-2.8,0-6,0.1-9.9,0.4
					C419,242.3,417.3,242.4,415.7,242.6"/>
				<path class="st0" d="M501.5,270.5h-27.8c0.3,2.5,0.5,5.3,0.5,8.2c0,1.7-0.1,3.4-0.3,5.1h27.6V270.5"/>
			</g>
		</g>
	</g>
	<path class="st0" d="M191.3,315.6c-0.9,1.1-1.4,2.2-1.7,3.2c-1.1,4,2.7,7.1,11.3,9.2c25.6,6.2,71.5,2.7,139.9-11
		c-0.8-0.3-3.6-1.7-5.8-2.8c-0.5-0.3-0.4-1-0.2-1.7l0.1-0.3c-49.9,9.5-88.9,10.7-111.6,7.3c-19.2-2.8-18.3-10.1,2.8-21.6
		c2.1-1.2,3.1-1.8,6-3.1c0.3-0.3,2.7-3.7,2.8-3.9c-7.7,3.2-15.7,6.4-21.7,9.5C201.8,306.3,194.4,311.4,191.3,315.6"/>
	<path class="st0" d="M554.6,232.9c-0.7-0.7-1.8-1.4-3.1-2c-5-2.4-14.1-3.8-27.3-4.1c-18.6-0.5-41.5,2.6-68.9,7l0,0
		c23.3-3,42-4.1,56.2-3.4c24.4,1.2,29,7.2,13.7,18c-13.3,9.2-25.7,14-35.6,17.9c-0.1,0-0.3,0.1-0.5,0.2h15.1c0.8,0,1.5,0.3,2.1,0.9
		c0.6,0.5,0.9,1.2,0.9,2.1v0.7c20.8-8.2,32.9-16.3,42.4-24.3C556,240.4,557.7,236.1,554.6,232.9"/>
	<path class="st0" d="M526.3,238.8c0.2,7.9-17.5,19.5-36.4,27.4c9.9-3.9,22.4-8.8,35.8-18c15.4-10.9,10.8-16.9-13.8-18.1
		c-14.3-0.7-33.1,0.4-56.6,3.4c14.1-1.4,28.7-2,43.8-1.7C516.6,232.2,525.7,234.1,526.3,238.8"/>
</g>
<g id="slogan">
</g>
</svg>
